HIERARCHY
ROOT root
{
	OFFSET	0	13.1	24.9
	CHANNELS 6  Xposition Yposition Zposition Xrotation Yrotation Zrotation
	JOINT spine_1
	{
		OFFSET	0	9.99999	0
		CHANNELS 3  Xrotation Yrotation Zrotation
		JOINT spine_2
		{
			OFFSET	0	112	-10
			CHANNELS 3  Xrotation Yrotation Zrotation
			JOINT spine_3
			{
				OFFSET	0	206.5	19.3
				CHANNELS 3  Xrotation Yrotation Zrotation
				JOINT spine_4
				{
					OFFSET	0	110.4	14.6
					CHANNELS 3  Xrotation Yrotation Zrotation
					JOINT neck_1
					{
						OFFSET	0	71.8	-50.3
						CHANNELS 3  Xrotation Yrotation Zrotation
						JOINT neck_2
						{
							OFFSET	0	86.2	-25.8
							CHANNELS 3  Xrotation Yrotation Zrotation
							JOINT head_ee
							{
								OFFSET	0	179.8	-8.7
								CHANNELS 3  Xrotation Yrotation Zrotation
								End Site
								{
									OFFSET	1	0	0
								}
							}
						}
					}
					JOINT left_clavicle
					{
						OFFSET	-43.2	22.4	-70.8
						CHANNELS 3  Xrotation Yrotation Zrotation
						JOINT left_shoulder
						{
							OFFSET	-93.9	-5.79999	48.7
							CHANNELS 3  Xrotation Yrotation Zrotation
							JOINT left_elbow
							{
								OFFSET	-291.4	-30.8	15.2
								CHANNELS 3  Xrotation Yrotation Zrotation
								JOINT left_lowarm_twist
								{
									OFFSET	-110.7	-3.89999	13.6
									CHANNELS 3  Xrotation Yrotation Zrotation
									JOINT left_hand
									{
										OFFSET	-110.7	-3.89999	13.6
										CHANNELS 3  Xrotation Yrotation Zrotation
										JOINT left_ee
										{
											OFFSET	-80.8	-5.10001	12.1
											CHANNELS 3  Xrotation Yrotation Zrotation
											End Site
											{
												OFFSET	1	0	0
											}
										}
									}
								}
							}
						}
					}
					JOINT right_clavicle
					{
						OFFSET	43.2	22.4	-70.8
						CHANNELS 3  Xrotation Yrotation Zrotation
						JOINT right_shoulder
						{
							OFFSET	93.9	-5.79999	48.7
							CHANNELS 3  Xrotation Yrotation Zrotation
							JOINT right_elbow
							{
								OFFSET	291.4	-30.8	15.2
								CHANNELS 3  Xrotation Yrotation Zrotation
								JOINT right_lowarm_twist
								{
									OFFSET	110.7	-3.89999	13.6
									CHANNELS 3  Xrotation Yrotation Zrotation
									JOINT right_hand
									{
										OFFSET	110.7	-3.89999	13.6
										CHANNELS 3  Xrotation Yrotation Zrotation
										JOINT right_ee
										{
											OFFSET	80.8	-5.10001	12.1
											CHANNELS 3  Xrotation Yrotation Zrotation
											End Site
											{
												OFFSET	1	0	0
											}
										}
									}
								}
							}
						}
					}
				}
			}
		}
	}
	JOINT left_hip
	{
		OFFSET	-82.8	-127.5	0.300001
		CHANNELS 3  Xrotation Yrotation Zrotation
		JOINT left_knee
		{
			OFFSET	-28.2	-396.7	2.2
			CHANNELS 3  Xrotation Yrotation Zrotation
			JOINT left_ankle
			{
				OFFSET	-11.7	-411.3	35.4
				CHANNELS 3  Xrotation Yrotation Zrotation
				JOINT left_toes
				{
					OFFSET	0	-60	-88.6
					CHANNELS 3  Xrotation Yrotation Zrotation
					JOINT left_foot_ee
					{
						OFFSET	-22.5	-16.5	-42.2
						CHANNELS 3  Xrotation Yrotation Zrotation
						End Site
						{
							OFFSET	1	0	0
						}
					}
				}
			}
		}
	}
	JOINT right_hip
	{
		OFFSET	82.8	-127.5	0.300001
		CHANNELS 3  Xrotation Yrotation Zrotation
		JOINT right_knee
		{
			OFFSET	28.2	-396.7	2.2
			CHANNELS 3  Xrotation Yrotation Zrotation
			JOINT right_ankle
			{
				OFFSET	11.7	-411.3	35.4
				CHANNELS 3  Xrotation Yrotation Zrotation
				JOINT right_toes
				{
					OFFSET	0	-60	-88.6
					CHANNELS 3  Xrotation Yrotation Zrotation
					JOINT right_foot_ee
					{
						OFFSET	22.5	-16.5	-42.2
						CHANNELS 3  Xrotation Yrotation Zrotation
						End Site
						{
							OFFSET	1	0	0
						}
					}
				}
			}
		}
	}
}
MOTION
Frames: 9
Frame Time: 0.02
1180.47507152 746.237 -1742.0882222 -6.70602507101 29.7793883857 0.279407070652 2.92414 0.636387 3.58054 2.93118 0.407411 3.61371 2.95494 -0.174141 3.63241 2.93675 0.401333 3.61439 -14.6567 -1.25478 -13.5382 -14.1678 5.76063 -13.2548 -0.0 0.0 -0.0 2.11073 17.5154 5.29599 -20.9481 -20.7243 59.4802 0.257316 -7.2643 0.0163339 1.3595 0.0459132 -0.167561 -0.715665 15.1654 1.76649 -0.0 0.0 -0.0 7.86007 7.14097 -15.2885 -3.94672 25.6637 -69.5865 1.0308 27.0494 -0.247948 74.3575 3.20461 8.26025 -2.24348 -18.7927 5.88348 0.0 0.0 0.0 25.9693 2.49992 -1.18841 -55.1311 -1.6978 7.96762 36.4895 -11.514 -4.74434 15.2065 -0.0 -0.0 -0.0 0.0 -0.0 17.1239 -4.44043 0.0623168 -4.23217 -0.150968 -0.631818 -8.9362 22.3714 -1.55282 22.4772 -0.0 -0.0 0.0 0.0 0.0 
1145.67450988 741.084 -1759.22155788 -6.18616917583 34.871523752 0.163584511776 3.08271 0.674333 3.83152 3.09077 0.429344 3.86659 3.11715 -0.181809 3.88608 3.09635 0.433737 3.8661 -16.4931 -1.08336 -13.969 -15.9828 5.89907 -13.5315 -0.0 0.0 -0.0 1.37849 19.1931 4.29594 -23.4159 -20.6967 58.4829 0.291387 -8.21378 0.0209221 -0.804124 -0.0290258 0.0985888 -0.0680533 20.5783 7.8849 -0.0 0.0 -0.0 7.89478 7.55031 -15.3533 -1.31339 25.0676 -68.8771 1.04384 27.3423 -0.253911 75.8409 3.36789 8.35815 -1.97903 -16.274 5.51734 0.0 0.0 0.0 27.7293 2.48418 -1.17141 -52.6884 -1.46428 7.67241 35.916 -9.19851 -4.63638 18.8941 -0.0 -0.0 -0.0 0.0 -0.0 13.8058 -1.31655 0.211604 -5.97596 -0.199514 -0.895019 0.130072 14.7013 0.0206894 24.9064 -0.0 -0.0 0.0 0.0 0.0 
1129.16499208 741.575 -1771.49284473 -6.26270394182 36.7545187361 0.0741671447926 3.03541 0.652373 3.87614 3.04367 0.404596 3.90972 3.06872 -0.2164 3.92462 3.04746 0.405651 3.90961 -16.9185 -1.09112 -14.1276 -16.3977 5.8691 -13.6693 -0.0 0.0 -0.0 1.26802 19.6835 4.16898 -24.2112 -20.6482 58.3622 0.298219 -8.40365 0.0219094 -1.46364 -0.0538645 0.179142 0.139295 22.1323 9.6958 -0.0 0.0 -0.0 7.91689 7.61991 -15.3985 0.0490066 24.8128 -68.852 1.06292 27.768 -0.262739 76.3 3.41894 8.3876 -1.88328 -15.4135 5.3424 0.0 0.0 0.0 28.7623 3.1076 -1.24728 -51.4536 -1.3511 7.51951 35.6539 -8.48307 -4.59661 19.9857 -0.0 -0.0 -0.0 0.0 -0.0 12.6204 -0.386603 0.675894 -6.75928 -0.218707 -1.0137 2.95278 12.344 0.458268 25.7286 -0.0 -0.0 0.0 0.0 0.0 
1101.35975529 742.397 -1774.14725786 -6.19608467575 39.8809792599 0.406024561234 2.6682 0.705882 3.92766 2.67667 0.454726 3.96454 2.70642 -0.200672 3.98545 2.68452 0.430768 3.96721 -17.1178 -0.953367 -14.3563 -16.5844 6.21304 -13.8307 -0.0 0.0 -0.0 1.20475 19.8035 4.0849 -24.7818 -20.6544 58.5095 0.296966 -8.36884 0.0217267 -1.29297 -0.0473476 0.158323 0.630431 23.5481 13.0928 -0.0 0.0 -0.0 8.52406 7.68461 -16.6825 0.313204 24.0853 -67.2748 1.14916 29.6501 -0.304167 76.74 3.46807 8.41542 -1.44805 -13.566 3.49841 0.0 0.0 0.0 29.205 3.23478 -1.45584 -51.6427 -1.36822 7.54308 35.4158 -7.88383 -4.56205 20.7312 -0.0 -0.0 -0.0 0.0 -0.0 11.8611 0.34109 1.12984 -9.38226 -0.271128 -1.41275 5.36342 11.5528 0.821914 27.0508 -0.0 -0.0 0.0 0.0 0.0 
1071.3488794 737.972 -1787.29847823 -4.07157884742 42.0133086288 -0.976347970236 2.19745 0.688816 3.91353 2.20586 0.438591 3.94935 2.23551 -0.246792 3.96593 2.21376 0.382148 3.9552 -16.9936 -1.39427 -14.0417 -16.4722 5.21924 -13.6912 -0.0 0.0 -0.0 0.753668 20.8935 3.51853 -26.5084 -20.1005 58.1441 0.404231 -11.3236 0.0400755 -1.9757 -0.073789 0.241488 0.648045 24.1804 13.4059 -0.0 0.0 -0.0 8.56253 7.81375 -16.7624 -0.508296 23.7842 -66.2759 1.35309 33.8314 -0.411523 76.9353 3.48995 8.42766 -1.28763 -12.0869 3.16294 0.0 0.0 0.0 30.7243 1.67034 -3.81009 -42.7424 -0.65039 6.37786 28.9969 -6.19696 -3.87026 19.7083 -0.0 -0.0 -0.0 0.0 -0.0 11.3184 1.4458 2.05253 -15.6333 -0.32208 -2.37005 11.7366 10.3046 1.74389 26.9326 -0.0 -0.0 0.0 0.0 0.0 
1047.20782115 733.639 -1805.01140989 -5.11460143319 42.8899056189 0.895842044187 2.38293 0.587154 3.54308 2.38984 0.360656 3.57321 2.41146 -0.24796 3.58278 2.39369 0.320614 3.57702 -16.2845 -2.37764 -13.8551 -15.7588 3.40134 -13.8661 -0.0 0.0 -0.0 0.671672 21.4348 3.44993 -27.9918 -19.5552 58.1752 0.508839 -14.1477 0.0631438 -1.72359 -0.0639097 0.210815 1.16357 25.3527 16.8137 -0.0 0.0 -0.0 9.25397 8.69642 -18.2303 -1.61467 22.7537 -63.1084 1.69468 40.01 -0.617021 77.2297 3.52302 8.44596 -0.555045 -9.02153 -0.16837 0.0 0.0 0.0 33.215 1.21626 -4.1834 -36.156 -0.240495 5.45265 21.062 -4.05401 -2.91564 18.5821 -0.0 -0.0 -0.0 0.0 -0.0 10.6176 5.84347 0.486139 -21.4571 -0.275477 -3.26203 19.5057 9.79846 2.79021 26.6553 -0.0 -0.0 0.0 0.0 0.0 
1027.14109636 730.583 -1808.88690499 -6.39125506203 44.6284354695 2.0721351131 2.37854 0.465852 3.60992 2.38576 0.235354 3.63221 2.39968 -0.382435 3.6197 2.38145 0.193639 3.63467 -16.591 -2.11103 -13.9394 -16.0632 3.88502 -13.8505 -0.0 0.0 -0.0 0.645029 21.5776 3.42507 -28.2709 -19.4696 58.0994 0.500274 -13.9189 0.0610668 -2.0577 -0.0770312 0.251455 1.09999 26.0163 16.6341 -0.0 0.0 -0.0 9.49912 8.69501 -18.7592 -1.32512 22.2882 -62.1035 1.84067 42.3549 -0.713168 77.2535 3.52569 8.44743 -0.457899 -7.8343 -0.291144 0.0 0.0 0.0 34.4256 0.567067 -4.29306 -32.249 -0.0486273 4.8841 18.7227 -3.98808 -2.62106 18.1147 -0.0 -0.0 -0.0 0.0 -0.0 10.2487 5.79677 0.481516 -22.2099 -0.262843 -3.37685 21.7781 9.65026 3.07657 27.0472 -0.0 -0.0 0.0 0.0 0.0 
1019.19242591 730.583 -1800.46957756 -6.54874514517 46.0019127816 2.29362854963 2.37854 0.465852 3.60992 2.38576 0.235354 3.63221 2.39968 -0.382435 3.6197 2.38145 0.193639 3.63467 -16.591 -2.11103 -13.9394 -16.0632 3.88502 -13.8505 -0.0 0.0 -0.0 0.645029 21.5776 3.42507 -28.2709 -19.4696 58.0994 0.500274 -13.9189 0.0610668 -2.0577 -0.0770312 0.251455 1.09999 26.0163 16.6341 -0.0 0.0 -0.0 9.49912 8.69501 -18.7592 -1.32512 22.2882 -62.1035 1.84067 42.3549 -0.713168 77.2535 3.52569 8.44743 -0.457899 -7.8343 -0.291144 0.0 0.0 0.0 34.4256 0.567067 -4.29306 -32.249 -0.0486273 4.8841 18.7227 -3.98808 -2.62106 18.1147 -0.0 -0.0 -0.0 0.0 -0.0 10.2487 5.79677 0.481516 -22.2099 -0.262843 -3.37685 21.7781 9.65026 3.07657 27.0472 -0.0 -0.0 0.0 0.0 0.0 
997.573287422 725.898 -1810.602172 -7.53901134812 45.4435835686 2.87126601699 2.50763 0.619242 3.62172 2.51484 0.387685 3.65372 2.53841 -0.226746 3.66721 2.51982 0.354871 3.65705 -15.6733 -2.6376 -13.8012 -15.148 3.02418 -13.9108 -0.0 0.0 -0.0 0.611673 21.8025 3.39852 -28.7089 -19.328 58.2415 0.488086 -13.5925 0.0581687 -2.32878 -0.0878521 0.284374 1.10668 26.1325 16.7075 -0.0 0.0 -0.0 9.70912 8.88064 -19.2121 -1.801 22.1491 -61.055 1.94908 43.9901 -0.787345 77.4545 3.54832 8.45981 -0.249095 -7.25719 -1.4031 0.0 0.0 0.0 35.1943 -0.208481 -4.71873 -28.0827 0.112713 4.26522 15.8283 -3.588 -2.24228 17.6609 -0.0 -0.0 -0.0 0.0 -0.0 10.0335 5.84231 1.03753 -22.7125 -0.253568 -3.45342 22.5126 9.30184 3.16223 26.8146 -0.0 -0.0 0.0 0.0 0.0 
